<?xml version="1.0" encoding="UTF-8" standalone="no"?>
<!DOCTYPE svg PUBLIC "-//W3C//DTD SVG 1.1//EN"
 "http://www.w3.org/Graphics/SVG/1.1/DTD/svg11.dtd">
<!-- Generated by graphviz version 2.50.0 (0)
 -->
<!-- Title: G Pages: 1 -->
<svg width="260pt" height="558pt"
 viewBox="0.00 0.00 260.00 558.00" xmlns="http://www.w3.org/2000/svg" xmlns:xlink="http://www.w3.org/1999/xlink">
<g id="graph0" class="graph" transform="scale(1 1) rotate(0) translate(4 554)">
<title>G</title>
<polygon fill="white" stroke="transparent" points="-4,4 -4,-554 256,-554 256,4 -4,4"/>
<!-- inputs -->
<g id="node1" class="node">
<title>inputs</title>
<ellipse fill="gray" stroke="transparent" cx="18" cy="-18" rx="18" ry="18"/>
<image xlink:href="C:/Users/DELL/Desktop/celen mlp/intermediate_outputs\input_node\24081916_25/Input, Modelfc1 Overlap0.3 Acc 85.3 ran at24081916_25.png" width="36px" height="36px" preserveAspectRatio="xMinYMin meet" x="0" y="-36"/>
</g>
<!-- inputs0 -->
<g id="node2" class="node">
<title>inputs0</title>
<ellipse fill="gray" stroke="transparent" cx="18" cy="-490" rx="18" ry="18"/>
</g>
<!-- chemosensory0 -->
<g id="node3" class="node">
<title>chemosensory0</title>
<ellipse fill="gray" stroke="transparent" cx="126" cy="-196" rx="18" ry="18"/>
<image xlink:href="C:/Users/DELL/Desktop/celen mlp/intermediate_outputs\chemosensory\24081916_25/Modelfc1 Overlap0.3 Acc 85.3 at chemosensory0 ran at24081916_25.png" width="36px" height="36px" preserveAspectRatio="xMinYMin meet" x="108" y="-214"/>
</g>
<!-- inputs0&#45;&gt;chemosensory0 -->
<g id="edge1" class="edge">
<title>inputs0&#45;&gt;chemosensory0</title>
<path fill="none" stroke="#ffffff" d="M25,-473.35C43.62,-421.73 100.23,-264.7 118.93,-212.83"/>
</g>
<!-- chemosensory1 -->
<g id="node4" class="node">
<title>chemosensory1</title>
<ellipse fill="gray" stroke="transparent" cx="126" cy="-154" rx="18" ry="18"/>
<image xlink:href="C:/Users/DELL/Desktop/celen mlp/intermediate_outputs\chemosensory\24081916_25/Modelfc1 Overlap0.3 Acc 85.3 at chemosensory1 ran at24081916_25.png" width="36px" height="36px" preserveAspectRatio="xMinYMin meet" x="108" y="-172"/>
</g>
<!-- inputs0&#45;&gt;chemosensory1 -->
<g id="edge2" class="edge">
<title>inputs0&#45;&gt;chemosensory1</title>
<path fill="none" stroke="#ffffff" d="M24.4,-472.88C42.59,-415.24 101.44,-228.68 119.61,-171.09"/>
</g>
<!-- chemosensory2 -->
<g id="node5" class="node">
<title>chemosensory2</title>
<ellipse fill="gray" stroke="transparent" cx="126" cy="-112" rx="18" ry="18"/>
<image xlink:href="C:/Users/DELL/Desktop/celen mlp/intermediate_outputs\chemosensory\24081916_25/Modelfc1 Overlap0.3 Acc 85.3 at chemosensory2 ran at24081916_25.png" width="36px" height="36px" preserveAspectRatio="xMinYMin meet" x="108" y="-130"/>
</g>
<!-- inputs0&#45;&gt;chemosensory2 -->
<g id="edge3" class="edge">
<title>inputs0&#45;&gt;chemosensory2</title>
<path fill="none" stroke="#ffffff" d="M23.83,-472.78C41.49,-409.8 102.44,-192.46 120.14,-129.33"/>
</g>
<!-- chemosensory3 -->
<g id="node6" class="node">
<title>chemosensory3</title>
<ellipse fill="gray" stroke="transparent" cx="126" cy="-70" rx="18" ry="18"/>
<image xlink:href="C:/Users/DELL/Desktop/celen mlp/intermediate_outputs\chemosensory\24081916_25/Modelfc1 Overlap0.3 Acc 85.3 at chemosensory3 ran at24081916_25.png" width="36px" height="36px" preserveAspectRatio="xMinYMin meet" x="108" y="-88"/>
</g>
<!-- inputs0&#45;&gt;chemosensory3 -->
<g id="edge4" class="edge">
<title>inputs0&#45;&gt;chemosensory3</title>
<path fill="none" stroke="#ffebc8" d="M23.35,-472.75C40.49,-404.83 103.24,-156.21 120.55,-87.62"/>
</g>
<!-- chemosensory4 -->
<g id="node7" class="node">
<title>chemosensory4</title>
<ellipse fill="gray" stroke="transparent" cx="126" cy="-28" rx="18" ry="18"/>
<image xlink:href="C:/Users/DELL/Desktop/celen mlp/intermediate_outputs\chemosensory\24081916_25/Modelfc1 Overlap0.3 Acc 85.3 at chemosensory4 ran at24081916_25.png" width="36px" height="36px" preserveAspectRatio="xMinYMin meet" x="108" y="-46"/>
</g>
<!-- inputs0&#45;&gt;chemosensory4 -->
<g id="edge5" class="edge">
<title>inputs0&#45;&gt;chemosensory4</title>
<path fill="none" stroke="#ffffff" d="M23.03,-472.45C39.82,-399.27 104.17,-118.78 120.97,-45.56"/>
</g>
<!-- chemosensory5 -->
<g id="node8" class="node">
<title>chemosensory5</title>
<ellipse fill="gray" stroke="transparent" cx="126" cy="-448" rx="18" ry="18"/>
<image xlink:href="C:/Users/DELL/Desktop/celen mlp/intermediate_outputs\chemosensory\24081916_25/Modelfc1 Overlap0.3 Acc 85.3 at chemosensory5 ran at24081916_25.png" width="36px" height="36px" preserveAspectRatio="xMinYMin meet" x="108" y="-466"/>
</g>
<!-- inputs0&#45;&gt;chemosensory5 -->
<g id="edge6" class="edge">
<title>inputs0&#45;&gt;chemosensory5</title>
<path fill="none" stroke="#ffffff" d="M35.1,-483.62C55.14,-475.68 89.15,-462.21 109.1,-454.3"/>
</g>
<!-- chemosensory6 -->
<g id="node9" class="node">
<title>chemosensory6</title>
<ellipse fill="gray" stroke="transparent" cx="126" cy="-406" rx="18" ry="18"/>
<image xlink:href="C:/Users/DELL/Desktop/celen mlp/intermediate_outputs\chemosensory\24081916_25/Modelfc1 Overlap0.3 Acc 85.3 at chemosensory6 ran at24081916_25.png" width="36px" height="36px" preserveAspectRatio="xMinYMin meet" x="108" y="-424"/>
</g>
<!-- inputs0&#45;&gt;chemosensory6 -->
<g id="edge7" class="edge">
<title>inputs0&#45;&gt;chemosensory6</title>
<path fill="none" stroke="#ffffff" d="M32.86,-479.02C53.28,-462.83 91.24,-432.75 111.47,-416.72"/>
</g>
<!-- chemosensory7 -->
<g id="node10" class="node">
<title>chemosensory7</title>
<ellipse fill="gray" stroke="transparent" cx="126" cy="-364" rx="18" ry="18"/>
<image xlink:href="C:/Users/DELL/Desktop/celen mlp/intermediate_outputs\chemosensory\24081916_25/Modelfc1 Overlap0.3 Acc 85.3 at chemosensory7 ran at24081916_25.png" width="36px" height="36px" preserveAspectRatio="xMinYMin meet" x="108" y="-382"/>
</g>
<!-- inputs0&#45;&gt;chemosensory7 -->
<g id="edge8" class="edge">
<title>inputs0&#45;&gt;chemosensory7</title>
<path fill="none" stroke="#ffffff" d="M30.34,-476.52C50.75,-452.26 93.4,-401.57 113.74,-377.39"/>
</g>
<!-- chemosensory8 -->
<g id="node11" class="node">
<title>chemosensory8</title>
<ellipse fill="gray" stroke="transparent" cx="126" cy="-322" rx="18" ry="18"/>
<image xlink:href="C:/Users/DELL/Desktop/celen mlp/intermediate_outputs\chemosensory\24081916_25/Modelfc1 Overlap0.3 Acc 85.3 at chemosensory8 ran at24081916_25.png" width="36px" height="36px" preserveAspectRatio="xMinYMin meet" x="108" y="-340"/>
</g>
<!-- inputs0&#45;&gt;chemosensory8 -->
<g id="edge9" class="edge">
<title>inputs0&#45;&gt;chemosensory8</title>
<path fill="none" stroke="#ffffff" d="M28.41,-475.09C48.47,-443.29 95.28,-369.1 115.46,-337.12"/>
</g>
<!-- chemosensory9 -->
<g id="node12" class="node">
<title>chemosensory9</title>
<ellipse fill="gray" stroke="transparent" cx="126" cy="-280" rx="18" ry="18"/>
<image xlink:href="C:/Users/DELL/Desktop/celen mlp/intermediate_outputs\chemosensory\24081916_25/Modelfc1 Overlap0.3 Acc 85.3 at chemosensory9 ran at24081916_25.png" width="36px" height="36px" preserveAspectRatio="xMinYMin meet" x="108" y="-298"/>
</g>
<!-- inputs0&#45;&gt;chemosensory9 -->
<g id="edge10" class="edge">
<title>inputs0&#45;&gt;chemosensory9</title>
<path fill="none" stroke="#ffdb9b" d="M26.97,-474.22C46.66,-435.2 97.45,-334.58 117.08,-295.68"/>
</g>
<!-- chemosensory10 -->
<g id="node13" class="node">
<title>chemosensory10</title>
<ellipse fill="gray" stroke="transparent" cx="126" cy="-238" rx="18" ry="18"/>
<image xlink:href="C:/Users/DELL/Desktop/celen mlp/intermediate_outputs\chemosensory\24081916_25/Modelfc1 Overlap0.3 Acc 85.3 at chemosensory10 ran at24081916_25.png" width="36px" height="36px" preserveAspectRatio="xMinYMin meet" x="108" y="-256"/>
</g>
<!-- inputs0&#45;&gt;chemosensory10 -->
<g id="edge11" class="edge">
<title>inputs0&#45;&gt;chemosensory10</title>
<path fill="none" stroke="#ffffff" d="M25.95,-473.47C45.21,-427.7 99.04,-299.72 118.16,-254.27"/>
</g>
<!-- outputs0 -->
<g id="node18" class="node">
<title>outputs0</title>
<ellipse fill="gray" stroke="transparent" cx="234" cy="-196" rx="18" ry="18"/>
<image xlink:href="C:/Users/DELL/Desktop/celen mlp/intermediate_outputs\output\24081916_25/Modelfc1 Overlap0.3 Acc 85.3 at output0 ran at24081916_25.png" width="36px" height="36px" preserveAspectRatio="xMinYMin meet" x="216" y="-214"/>
</g>
<!-- chemosensory0&#45;&gt;outputs0 -->
<g id="edge56" class="edge">
<title>chemosensory0&#45;&gt;outputs0</title>
<path fill="none" stroke="#ffcd72" d="M144.03,-196C163.69,-196 195.87,-196 215.66,-196"/>
</g>
<!-- outputs1 -->
<g id="node19" class="node">
<title>outputs1</title>
<ellipse fill="gray" stroke="transparent" cx="234" cy="-154" rx="18" ry="18"/>
<image xlink:href="C:/Users/DELL/Desktop/celen mlp/intermediate_outputs\output\24081916_25/Modelfc1 Overlap0.3 Acc 85.3 at output1 ran at24081916_25.png" width="36px" height="36px" preserveAspectRatio="xMinYMin meet" x="216" y="-172"/>
</g>
<!-- chemosensory0&#45;&gt;outputs1 -->
<g id="edge57" class="edge">
<title>chemosensory0&#45;&gt;outputs1</title>
<path fill="none" stroke="#ffffff" d="M143.1,-189.62C163.14,-181.68 197.15,-168.21 217.1,-160.3"/>
</g>
<!-- outputs2 -->
<g id="node20" class="node">
<title>outputs2</title>
<ellipse fill="gray" stroke="transparent" cx="234" cy="-91" rx="18" ry="18"/>
<image xlink:href="C:/Users/DELL/Desktop/celen mlp/intermediate_outputs\output\24081916_25/Modelfc1 Overlap0.3 Acc 85.3 at output2 ran at24081916_25.png" width="36px" height="36px" preserveAspectRatio="xMinYMin meet" x="216" y="-109"/>
</g>
<!-- chemosensory0&#45;&gt;outputs2 -->
<g id="edge58" class="edge">
<title>chemosensory0&#45;&gt;outputs2</title>
<path fill="none" stroke="#ffffff" d="M139.58,-183.54C159.98,-163.33 200.05,-123.64 220.44,-103.44"/>
</g>
<!-- chemosensory1&#45;&gt;outputs0 -->
<g id="edge59" class="edge">
<title>chemosensory1&#45;&gt;outputs0</title>
<path fill="none" stroke="#ffffff" d="M143.1,-160.38C163.14,-168.32 197.15,-181.79 217.1,-189.7"/>
</g>
<!-- chemosensory1&#45;&gt;outputs1 -->
<g id="edge60" class="edge">
<title>chemosensory1&#45;&gt;outputs1</title>
<path fill="none" stroke="#ffffff" d="M144.03,-154C163.69,-154 195.87,-154 215.66,-154"/>
</g>
<!-- chemosensory1&#45;&gt;outputs2 -->
<g id="edge61" class="edge">
<title>chemosensory1&#45;&gt;outputs2</title>
<path fill="none" stroke="#ffffff" d="M141.74,-145.24C161.88,-133.27 197.79,-111.92 218.04,-99.89"/>
</g>
<!-- chemosensory2&#45;&gt;outputs0 -->
<g id="edge62" class="edge">
<title>chemosensory2&#45;&gt;outputs0</title>
<path fill="none" stroke="#ffffff" d="M140.86,-122.98C161.28,-139.17 199.24,-169.25 219.47,-185.28"/>
</g>
<!-- chemosensory2&#45;&gt;outputs1 -->
<g id="edge63" class="edge">
<title>chemosensory2&#45;&gt;outputs1</title>
<path fill="none" stroke="#ffffff" d="M143.1,-118.38C163.14,-126.32 197.15,-139.79 217.1,-147.7"/>
</g>
<!-- chemosensory2&#45;&gt;outputs2 -->
<g id="edge64" class="edge">
<title>chemosensory2&#45;&gt;outputs2</title>
<path fill="none" stroke="#ffffff" d="M144.03,-108.63C163.81,-104.71 196.25,-98.28 216.01,-94.37"/>
</g>
<!-- chemosensory3&#45;&gt;outputs0 -->
<g id="edge65" class="edge">
<title>chemosensory3&#45;&gt;outputs0</title>
<path fill="none" stroke="#ffffff" d="M138.34,-83.48C158.75,-107.74 201.4,-158.43 221.74,-182.61"/>
</g>
<!-- chemosensory3&#45;&gt;outputs1 -->
<g id="edge66" class="edge">
<title>chemosensory3&#45;&gt;outputs1</title>
<path fill="none" stroke="#ffffff" d="M140.86,-80.98C161.28,-97.17 199.24,-127.25 219.47,-143.28"/>
</g>
<!-- chemosensory3&#45;&gt;outputs2 -->
<g id="edge67" class="edge">
<title>chemosensory3&#45;&gt;outputs2</title>
<path fill="none" stroke="#bebeff" d="M144.03,-73.37C163.81,-77.29 196.25,-83.72 216.01,-87.63"/>
</g>
<!-- chemosensory4&#45;&gt;outputs0 -->
<g id="edge68" class="edge">
<title>chemosensory4&#45;&gt;outputs0</title>
<path fill="none" stroke="#ffbf4a" d="M136.41,-42.91C156.47,-74.71 203.28,-148.9 223.46,-180.88"/>
</g>
<!-- chemosensory4&#45;&gt;outputs1 -->
<g id="edge69" class="edge">
<title>chemosensory4&#45;&gt;outputs1</title>
<path fill="none" stroke="#ffffff" d="M138.34,-41.48C158.75,-65.74 201.4,-116.43 221.74,-140.61"/>
</g>
<!-- chemosensory4&#45;&gt;outputs2 -->
<g id="edge70" class="edge">
<title>chemosensory4&#45;&gt;outputs2</title>
<path fill="none" stroke="#ffffff" d="M141.74,-36.76C161.88,-48.73 197.79,-70.08 218.04,-82.11"/>
</g>
<!-- chemosensory5&#45;&gt;outputs0 -->
<g id="edge71" class="edge">
<title>chemosensory5&#45;&gt;outputs0</title>
<path fill="none" stroke="#ffffff" d="M133.95,-431.47C153.21,-385.7 207.04,-257.72 226.16,-212.27"/>
</g>
<!-- chemosensory5&#45;&gt;outputs1 -->
<g id="edge72" class="edge">
<title>chemosensory5&#45;&gt;outputs1</title>
<path fill="none" stroke="#ffffff" d="M133,-431.35C151.62,-379.73 208.23,-222.7 226.93,-170.83"/>
</g>
<!-- chemosensory5&#45;&gt;outputs2 -->
<g id="edge73" class="edge">
<title>chemosensory5&#45;&gt;outputs2</title>
<path fill="none" stroke="#ffffff" d="M132.11,-430.78C150.06,-370.33 210.07,-168.22 227.94,-108.05"/>
</g>
<!-- chemosensory6&#45;&gt;outputs0 -->
<g id="edge74" class="edge">
<title>chemosensory6&#45;&gt;outputs0</title>
<path fill="none" stroke="#0000ff" d="M134.97,-390.22C154.66,-351.2 205.45,-250.58 225.08,-211.68"/>
</g>
<!-- chemosensory6&#45;&gt;outputs1 -->
<g id="edge75" class="edge">
<title>chemosensory6&#45;&gt;outputs1</title>
<path fill="none" stroke="#ffffff" d="M133.95,-389.47C153.21,-343.7 207.04,-215.72 226.16,-170.27"/>
</g>
<!-- chemosensory6&#45;&gt;outputs2 -->
<g id="edge76" class="edge">
<title>chemosensory6&#45;&gt;outputs2</title>
<path fill="none" stroke="#ffffff" d="M132.7,-389.06C151.1,-334.37 208.83,-162.83 227.27,-108.02"/>
</g>
<!-- chemosensory7&#45;&gt;outputs0 -->
<g id="edge77" class="edge">
<title>chemosensory7&#45;&gt;outputs0</title>
<path fill="none" stroke="#ffffff" d="M136.41,-349.09C156.47,-317.29 203.28,-243.1 223.46,-211.12"/>
</g>
<!-- chemosensory7&#45;&gt;outputs1 -->
<g id="edge78" class="edge">
<title>chemosensory7&#45;&gt;outputs1</title>
<path fill="none" stroke="#b8b8ff" d="M134.97,-348.22C154.66,-309.2 205.45,-208.58 225.08,-169.68"/>
</g>
<!-- chemosensory7&#45;&gt;outputs2 -->
<g id="edge79" class="edge">
<title>chemosensory7&#45;&gt;outputs2</title>
<path fill="none" stroke="#ffffff" d="M133.47,-347.33C152.44,-298.48 207.75,-156.02 226.61,-107.45"/>
</g>
<!-- chemosensory8&#45;&gt;outputs0 -->
<g id="edge80" class="edge">
<title>chemosensory8&#45;&gt;outputs0</title>
<path fill="none" stroke="#ffffff" d="M138.34,-308.52C158.75,-284.26 201.4,-233.57 221.74,-209.39"/>
</g>
<!-- chemosensory8&#45;&gt;outputs1 -->
<g id="edge81" class="edge">
<title>chemosensory8&#45;&gt;outputs1</title>
<path fill="none" stroke="#d2d2ff" d="M136.41,-307.09C156.47,-275.29 203.28,-201.1 223.46,-169.12"/>
</g>
<!-- chemosensory8&#45;&gt;outputs2 -->
<g id="edge82" class="edge">
<title>chemosensory8&#45;&gt;outputs2</title>
<path fill="none" stroke="#ffffff" d="M134.45,-305.76C153.92,-263.34 206.1,-149.62 225.55,-107.23"/>
</g>
<!-- chemosensory9&#45;&gt;outputs0 -->
<g id="edge83" class="edge">
<title>chemosensory9&#45;&gt;outputs0</title>
<path fill="none" stroke="#ffffff" d="M140.86,-269.02C161.28,-252.83 199.24,-222.75 219.47,-206.72"/>
</g>
<!-- chemosensory9&#45;&gt;outputs1 -->
<g id="edge84" class="edge">
<title>chemosensory9&#45;&gt;outputs1</title>
<path fill="none" stroke="#ffffff" d="M138.34,-266.52C158.75,-242.26 201.4,-191.57 221.74,-167.39"/>
</g>
<!-- chemosensory9&#45;&gt;outputs2 -->
<g id="edge85" class="edge">
<title>chemosensory9&#45;&gt;outputs2</title>
<path fill="none" stroke="#ffffff" d="M135.67,-264.53C155.6,-229 204.46,-141.89 224.35,-106.42"/>
</g>
<!-- chemosensory10&#45;&gt;outputs0 -->
<g id="edge86" class="edge">
<title>chemosensory10&#45;&gt;outputs0</title>
<path fill="none" stroke="#ffffff" d="M143.1,-231.62C163.14,-223.68 197.15,-210.21 217.1,-202.3"/>
</g>
<!-- chemosensory10&#45;&gt;outputs1 -->
<g id="edge87" class="edge">
<title>chemosensory10&#45;&gt;outputs1</title>
<path fill="none" stroke="#ffffff" d="M140.86,-227.02C161.28,-210.83 199.24,-180.75 219.47,-164.72"/>
</g>
<!-- chemosensory10&#45;&gt;outputs2 -->
<g id="edge88" class="edge">
<title>chemosensory10&#45;&gt;outputs2</title>
<path fill="none" stroke="#ffffff" d="M137.36,-223.64C157.67,-195.46 202.53,-133.25 222.76,-105.2"/>
</g>
<!-- inputs1 -->
<g id="node14" class="node">
<title>inputs1</title>
<ellipse fill="gray" stroke="transparent" cx="18" cy="-448" rx="18" ry="18"/>
</g>
<!-- inputs1&#45;&gt;chemosensory0 -->
<g id="edge12" class="edge">
<title>inputs1&#45;&gt;chemosensory0</title>
<path fill="none" stroke="#ffffff" d="M25.95,-431.47C45.21,-385.7 99.04,-257.72 118.16,-212.27"/>
</g>
<!-- inputs1&#45;&gt;chemosensory1 -->
<g id="edge13" class="edge">
<title>inputs1&#45;&gt;chemosensory1</title>
<path fill="none" stroke="#a0a0ff" d="M25,-431.35C43.62,-379.73 100.23,-222.7 118.93,-170.83"/>
</g>
<!-- inputs1&#45;&gt;chemosensory2 -->
<g id="edge14" class="edge">
<title>inputs1&#45;&gt;chemosensory2</title>
<path fill="none" stroke="#ffffff" d="M24.4,-430.88C42.59,-373.24 101.44,-186.68 119.61,-129.09"/>
</g>
<!-- inputs1&#45;&gt;chemosensory3 -->
<g id="edge15" class="edge">
<title>inputs1&#45;&gt;chemosensory3</title>
<path fill="none" stroke="#fffbf5" d="M23.83,-430.78C41.49,-367.8 102.44,-150.46 120.14,-87.33"/>
</g>
<!-- inputs1&#45;&gt;chemosensory4 -->
<g id="edge16" class="edge">
<title>inputs1&#45;&gt;chemosensory4</title>
<path fill="none" stroke="#ffffff" d="M23.35,-430.75C40.49,-362.83 103.24,-114.21 120.55,-45.62"/>
</g>
<!-- inputs1&#45;&gt;chemosensory5 -->
<g id="edge17" class="edge">
<title>inputs1&#45;&gt;chemosensory5</title>
<path fill="none" stroke="#ffa500" d="M36.03,-448C55.69,-448 87.87,-448 107.66,-448"/>
</g>
<!-- inputs1&#45;&gt;chemosensory6 -->
<g id="edge18" class="edge">
<title>inputs1&#45;&gt;chemosensory6</title>
<path fill="none" stroke="#ffffff" d="M35.1,-441.62C55.14,-433.68 89.15,-420.21 109.1,-412.3"/>
</g>
<!-- inputs1&#45;&gt;chemosensory7 -->
<g id="edge19" class="edge">
<title>inputs1&#45;&gt;chemosensory7</title>
<path fill="none" stroke="#e6e6ff" d="M32.86,-437.02C53.28,-420.83 91.24,-390.75 111.47,-374.72"/>
</g>
<!-- inputs1&#45;&gt;chemosensory8 -->
<g id="edge20" class="edge">
<title>inputs1&#45;&gt;chemosensory8</title>
<path fill="none" stroke="#ffffff" d="M30.34,-434.52C50.75,-410.26 93.4,-359.57 113.74,-335.39"/>
</g>
<!-- inputs1&#45;&gt;chemosensory9 -->
<g id="edge21" class="edge">
<title>inputs1&#45;&gt;chemosensory9</title>
<path fill="none" stroke="#ffffff" d="M28.41,-433.09C48.47,-401.29 95.28,-327.1 115.46,-295.12"/>
</g>
<!-- inputs1&#45;&gt;chemosensory10 -->
<g id="edge22" class="edge">
<title>inputs1&#45;&gt;chemosensory10</title>
<path fill="none" stroke="#ffffff" d="M26.97,-432.22C46.66,-393.2 97.45,-292.58 117.08,-253.68"/>
</g>
<!-- inputs2 -->
<g id="node15" class="node">
<title>inputs2</title>
<ellipse fill="gray" stroke="transparent" cx="18" cy="-406" rx="18" ry="18"/>
</g>
<!-- inputs2&#45;&gt;chemosensory0 -->
<g id="edge23" class="edge">
<title>inputs2&#45;&gt;chemosensory0</title>
<path fill="none" stroke="#ffffff" d="M26.97,-390.22C46.66,-351.2 97.45,-250.58 117.08,-211.68"/>
</g>
<!-- inputs2&#45;&gt;chemosensory1 -->
<g id="edge24" class="edge">
<title>inputs2&#45;&gt;chemosensory1</title>
<path fill="none" stroke="#ffffff" d="M25.95,-389.47C45.21,-343.7 99.04,-215.72 118.16,-170.27"/>
</g>
<!-- inputs2&#45;&gt;chemosensory2 -->
<g id="edge25" class="edge">
<title>inputs2&#45;&gt;chemosensory2</title>
<path fill="none" stroke="#ffffff" d="M25,-389.35C43.62,-337.73 100.23,-180.7 118.93,-128.83"/>
</g>
<!-- inputs2&#45;&gt;chemosensory3 -->
<g id="edge26" class="edge">
<title>inputs2&#45;&gt;chemosensory3</title>
<path fill="none" stroke="#ffffff" d="M24.4,-388.88C42.59,-331.24 101.44,-144.68 119.61,-87.09"/>
</g>
<!-- inputs2&#45;&gt;chemosensory4 -->
<g id="edge27" class="edge">
<title>inputs2&#45;&gt;chemosensory4</title>
<path fill="none" stroke="#ffffff" d="M23.83,-388.78C41.49,-325.8 102.44,-108.46 120.14,-45.33"/>
</g>
<!-- inputs2&#45;&gt;chemosensory5 -->
<g id="edge28" class="edge">
<title>inputs2&#45;&gt;chemosensory5</title>
<path fill="none" stroke="#ffffff" d="M35.1,-412.38C55.14,-420.32 89.15,-433.79 109.1,-441.7"/>
</g>
<!-- inputs2&#45;&gt;chemosensory6 -->
<g id="edge29" class="edge">
<title>inputs2&#45;&gt;chemosensory6</title>
<path fill="none" stroke="#ffffff" d="M36.03,-406C55.69,-406 87.87,-406 107.66,-406"/>
</g>
<!-- inputs2&#45;&gt;chemosensory7 -->
<g id="edge30" class="edge">
<title>inputs2&#45;&gt;chemosensory7</title>
<path fill="none" stroke="#ffffff" d="M35.1,-399.62C55.14,-391.68 89.15,-378.21 109.1,-370.3"/>
</g>
<!-- inputs2&#45;&gt;chemosensory8 -->
<g id="edge31" class="edge">
<title>inputs2&#45;&gt;chemosensory8</title>
<path fill="none" stroke="#ffffff" d="M32.86,-395.02C53.28,-378.83 91.24,-348.75 111.47,-332.72"/>
</g>
<!-- inputs2&#45;&gt;chemosensory9 -->
<g id="edge32" class="edge">
<title>inputs2&#45;&gt;chemosensory9</title>
<path fill="none" stroke="#ffffff" d="M30.34,-392.52C50.75,-368.26 93.4,-317.57 113.74,-293.39"/>
</g>
<!-- inputs2&#45;&gt;chemosensory10 -->
<g id="edge33" class="edge">
<title>inputs2&#45;&gt;chemosensory10</title>
<path fill="none" stroke="#ffffff" d="M28.41,-391.09C48.47,-359.29 95.28,-285.1 115.46,-253.12"/>
</g>
<!-- inputs3 -->
<g id="node16" class="node">
<title>inputs3</title>
<ellipse fill="gray" stroke="transparent" cx="18" cy="-60" rx="18" ry="18"/>
</g>
<!-- inputs3&#45;&gt;chemosensory0 -->
<g id="edge34" class="edge">
<title>inputs3&#45;&gt;chemosensory0</title>
<path fill="none" stroke="#ffffff" d="M29.75,-73.79C50.06,-99.86 93.89,-156.08 114.22,-182.17"/>
</g>
<!-- inputs3&#45;&gt;chemosensory1 -->
<g id="edge35" class="edge">
<title>inputs3&#45;&gt;chemosensory1</title>
<path fill="none" stroke="#ffffff" d="M32,-71.53C52.34,-89.57 91.49,-124.28 111.9,-142.38"/>
</g>
<!-- inputs3&#45;&gt;chemosensory2 -->
<g id="edge36" class="edge">
<title>inputs3&#45;&gt;chemosensory2</title>
<path fill="none" stroke="#ffe2af" d="M34.64,-67.67C54.8,-77.56 89.62,-94.64 109.64,-104.46"/>
</g>
<!-- inputs3&#45;&gt;chemosensory3 -->
<g id="edge37" class="edge">
<title>inputs3&#45;&gt;chemosensory3</title>
<path fill="none" stroke="#ffffff" d="M36.03,-61.61C55.81,-63.47 88.25,-66.53 108.01,-68.4"/>
</g>
<!-- inputs3&#45;&gt;chemosensory4 -->
<g id="edge38" class="edge">
<title>inputs3&#45;&gt;chemosensory4</title>
<path fill="none" stroke="#9191ff" d="M35.56,-55C55.48,-48.99 88.69,-38.96 108.55,-32.96"/>
</g>
<!-- inputs3&#45;&gt;chemosensory5 -->
<g id="edge39" class="edge">
<title>inputs3&#45;&gt;chemosensory5</title>
<path fill="none" stroke="#fff2dc" d="M23.69,-77.17C41.2,-141.26 102.62,-366.09 120.24,-430.59"/>
</g>
<!-- inputs3&#45;&gt;chemosensory6 -->
<g id="edge40" class="edge">
<title>inputs3&#45;&gt;chemosensory6</title>
<path fill="none" stroke="#ffd487" d="M24.26,-77.16C42.3,-136.07 101.62,-329.67 119.71,-388.74"/>
</g>
<!-- inputs3&#45;&gt;chemosensory7 -->
<g id="edge41" class="edge">
<title>inputs3&#45;&gt;chemosensory7</title>
<path fill="none" stroke="#ffdb9b" d="M24.85,-76.78C43.38,-129.93 100.66,-294.2 119.17,-347.27"/>
</g>
<!-- inputs3&#45;&gt;chemosensory8 -->
<g id="edge42" class="edge">
<title>inputs3&#45;&gt;chemosensory8</title>
<path fill="none" stroke="#ffdb9b" d="M25.63,-76.39C44.67,-123.44 99.34,-258.57 118.37,-305.62"/>
</g>
<!-- inputs3&#45;&gt;chemosensory9 -->
<g id="edge43" class="edge">
<title>inputs3&#45;&gt;chemosensory9</title>
<path fill="none" stroke="#ffffff" d="M26.62,-75.82C46.13,-116.31 97.71,-223.37 117.3,-264.03"/>
</g>
<!-- inputs3&#45;&gt;chemosensory10 -->
<g id="edge44" class="edge">
<title>inputs3&#45;&gt;chemosensory10</title>
<path fill="none" stroke="#ffffff" d="M28.04,-75.18C48.06,-108.81 95.98,-189.27 115.99,-222.86"/>
</g>
<!-- inputs4 -->
<g id="node17" class="node">
<title>inputs4</title>
<ellipse fill="gray" stroke="transparent" cx="18" cy="-532" rx="18" ry="18"/>
</g>
<!-- inputs4&#45;&gt;chemosensory0 -->
<g id="edge45" class="edge">
<title>inputs4&#45;&gt;chemosensory0</title>
<path fill="none" stroke="#ffffff" d="M24.4,-514.88C42.59,-457.24 101.44,-270.68 119.61,-213.09"/>
</g>
<!-- inputs4&#45;&gt;chemosensory1 -->
<g id="edge46" class="edge">
<title>inputs4&#45;&gt;chemosensory1</title>
<path fill="none" stroke="#ebebff" d="M23.83,-514.78C41.49,-451.8 102.44,-234.46 120.14,-171.33"/>
</g>
<!-- inputs4&#45;&gt;chemosensory2 -->
<g id="edge47" class="edge">
<title>inputs4&#45;&gt;chemosensory2</title>
<path fill="none" stroke="#ffe1aa" d="M23.35,-514.75C40.49,-446.83 103.24,-198.21 120.55,-129.62"/>
</g>
<!-- inputs4&#45;&gt;chemosensory3 -->
<g id="edge48" class="edge">
<title>inputs4&#45;&gt;chemosensory3</title>
<path fill="none" stroke="#ffffff" d="M23.03,-514.45C39.82,-441.27 104.17,-160.78 120.97,-87.56"/>
</g>
<!-- inputs4&#45;&gt;chemosensory4 -->
<g id="edge49" class="edge">
<title>inputs4&#45;&gt;chemosensory4</title>
<path fill="none" stroke="#ffffff" d="M22.71,-514.36C39.11,-436.39 104.98,-123.18 121.32,-45.5"/>
</g>
<!-- inputs4&#45;&gt;chemosensory5 -->
<g id="edge50" class="edge">
<title>inputs4&#45;&gt;chemosensory5</title>
<path fill="none" stroke="#ffb328" d="M32.86,-521.02C53.28,-504.83 91.24,-474.75 111.47,-458.72"/>
</g>
<!-- inputs4&#45;&gt;chemosensory6 -->
<g id="edge51" class="edge">
<title>inputs4&#45;&gt;chemosensory6</title>
<path fill="none" stroke="#ffffff" d="M30.34,-518.52C50.75,-494.26 93.4,-443.57 113.74,-419.39"/>
</g>
<!-- inputs4&#45;&gt;chemosensory7 -->
<g id="edge52" class="edge">
<title>inputs4&#45;&gt;chemosensory7</title>
<path fill="none" stroke="#ffffff" d="M28.41,-517.09C48.47,-485.29 95.28,-411.1 115.46,-379.12"/>
</g>
<!-- inputs4&#45;&gt;chemosensory8 -->
<g id="edge53" class="edge">
<title>inputs4&#45;&gt;chemosensory8</title>
<path fill="none" stroke="#d7d7ff" d="M26.97,-516.22C46.66,-477.2 97.45,-376.58 117.08,-337.68"/>
</g>
<!-- inputs4&#45;&gt;chemosensory9 -->
<g id="edge54" class="edge">
<title>inputs4&#45;&gt;chemosensory9</title>
<path fill="none" stroke="#ffffff" d="M25.95,-515.47C45.21,-469.7 99.04,-341.72 118.16,-296.27"/>
</g>
<!-- inputs4&#45;&gt;chemosensory10 -->
<g id="edge55" class="edge">
<title>inputs4&#45;&gt;chemosensory10</title>
<path fill="none" stroke="#ffffff" d="M25,-515.35C43.62,-463.73 100.23,-306.7 118.93,-254.83"/>
</g>
</g>
</svg>
