<?xml version="1.0" encoding="UTF-8" standalone="no"?>
<!DOCTYPE svg PUBLIC "-//W3C//DTD SVG 1.1//EN"
 "http://www.w3.org/Graphics/SVG/1.1/DTD/svg11.dtd">
<!-- Generated by graphviz version 2.50.0 (0)
 -->
<!-- Title: G Pages: 1 -->
<svg width="260pt" height="464pt"
 viewBox="0.00 0.00 260.00 464.00" xmlns="http://www.w3.org/2000/svg" xmlns:xlink="http://www.w3.org/1999/xlink">
<g id="graph0" class="graph" transform="scale(1 1) rotate(0) translate(4 460)">
<title>G</title>
<polygon fill="white" stroke="transparent" points="-4,4 -4,-460 256,-460 256,4 -4,4"/>
<!-- inputs -->
<g id="node1" class="node">
<title>inputs</title>
<ellipse fill="gray" stroke="transparent" cx="18" cy="-18" rx="18" ry="18"/>
<image xlink:href="C:/Users/DELL/Desktop/celen mlp/intermediate_outputs\input_node\24081916_25/Input, Modelfc1 Overlap0.1 Acc 99.8 ran at24081916_25.png" width="36px" height="36px" preserveAspectRatio="xMinYMin meet" x="0" y="-36"/>
</g>
<!-- inputs0 -->
<g id="node2" class="node">
<title>inputs0</title>
<ellipse fill="gray" stroke="transparent" cx="18" cy="-186" rx="18" ry="18"/>
</g>
<!-- chemosensory0 -->
<g id="node3" class="node">
<title>chemosensory0</title>
<ellipse fill="gray" stroke="transparent" cx="126" cy="-186" rx="18" ry="18"/>
<image xlink:href="C:/Users/DELL/Desktop/celen mlp/intermediate_outputs\chemosensory\24081916_25/Modelfc1 Overlap0.1 Acc 99.8 at chemosensory0 ran at24081916_25.png" width="36px" height="36px" preserveAspectRatio="xMinYMin meet" x="108" y="-204"/>
</g>
<!-- inputs0&#45;&gt;chemosensory0 -->
<g id="edge1" class="edge">
<title>inputs0&#45;&gt;chemosensory0</title>
<path fill="none" stroke="#ffffff" d="M36.03,-186C55.69,-186 87.87,-186 107.66,-186"/>
</g>
<!-- chemosensory1 -->
<g id="node4" class="node">
<title>chemosensory1</title>
<ellipse fill="gray" stroke="transparent" cx="126" cy="-144" rx="18" ry="18"/>
<image xlink:href="C:/Users/DELL/Desktop/celen mlp/intermediate_outputs\chemosensory\24081916_25/Modelfc1 Overlap0.1 Acc 99.8 at chemosensory1 ran at24081916_25.png" width="36px" height="36px" preserveAspectRatio="xMinYMin meet" x="108" y="-162"/>
</g>
<!-- inputs0&#45;&gt;chemosensory1 -->
<g id="edge2" class="edge">
<title>inputs0&#45;&gt;chemosensory1</title>
<path fill="none" stroke="#ffb122" d="M35.1,-179.62C55.14,-171.68 89.15,-158.21 109.1,-150.3"/>
</g>
<!-- chemosensory2 -->
<g id="node5" class="node">
<title>chemosensory2</title>
<ellipse fill="gray" stroke="transparent" cx="126" cy="-102" rx="18" ry="18"/>
<image xlink:href="C:/Users/DELL/Desktop/celen mlp/intermediate_outputs\chemosensory\24081916_25/Modelfc1 Overlap0.1 Acc 99.8 at chemosensory2 ran at24081916_25.png" width="36px" height="36px" preserveAspectRatio="xMinYMin meet" x="108" y="-120"/>
</g>
<!-- inputs0&#45;&gt;chemosensory2 -->
<g id="edge3" class="edge">
<title>inputs0&#45;&gt;chemosensory2</title>
<path fill="none" stroke="#ffffff" d="M32.86,-175.02C53.28,-158.83 91.24,-128.75 111.47,-112.72"/>
</g>
<!-- chemosensory3 -->
<g id="node6" class="node">
<title>chemosensory3</title>
<ellipse fill="gray" stroke="transparent" cx="126" cy="-60" rx="18" ry="18"/>
<image xlink:href="C:/Users/DELL/Desktop/celen mlp/intermediate_outputs\chemosensory\24081916_25/Modelfc1 Overlap0.1 Acc 99.8 at chemosensory3 ran at24081916_25.png" width="36px" height="36px" preserveAspectRatio="xMinYMin meet" x="108" y="-78"/>
</g>
<!-- inputs0&#45;&gt;chemosensory3 -->
<g id="edge4" class="edge">
<title>inputs0&#45;&gt;chemosensory3</title>
<path fill="none" stroke="#ffffff" d="M30.34,-172.52C50.75,-148.26 93.4,-97.57 113.74,-73.39"/>
</g>
<!-- chemosensory4 -->
<g id="node7" class="node">
<title>chemosensory4</title>
<ellipse fill="gray" stroke="transparent" cx="126" cy="-18" rx="18" ry="18"/>
<image xlink:href="C:/Users/DELL/Desktop/celen mlp/intermediate_outputs\chemosensory\24081916_25/Modelfc1 Overlap0.1 Acc 99.8 at chemosensory4 ran at24081916_25.png" width="36px" height="36px" preserveAspectRatio="xMinYMin meet" x="108" y="-36"/>
</g>
<!-- inputs0&#45;&gt;chemosensory4 -->
<g id="edge5" class="edge">
<title>inputs0&#45;&gt;chemosensory4</title>
<path fill="none" stroke="#ffffff" d="M28.41,-171.09C48.47,-139.29 95.28,-65.1 115.46,-33.12"/>
</g>
<!-- chemosensory5 -->
<g id="node8" class="node">
<title>chemosensory5</title>
<ellipse fill="gray" stroke="transparent" cx="126" cy="-438" rx="18" ry="18"/>
<image xlink:href="C:/Users/DELL/Desktop/celen mlp/intermediate_outputs\chemosensory\24081916_25/Modelfc1 Overlap0.1 Acc 99.8 at chemosensory5 ran at24081916_25.png" width="36px" height="36px" preserveAspectRatio="xMinYMin meet" x="108" y="-456"/>
</g>
<!-- inputs0&#45;&gt;chemosensory5 -->
<g id="edge6" class="edge">
<title>inputs0&#45;&gt;chemosensory5</title>
<path fill="none" stroke="#ffffff" d="M25.95,-202.53C45.21,-248.3 99.04,-376.28 118.16,-421.73"/>
</g>
<!-- chemosensory6 -->
<g id="node9" class="node">
<title>chemosensory6</title>
<ellipse fill="gray" stroke="transparent" cx="126" cy="-396" rx="18" ry="18"/>
<image xlink:href="C:/Users/DELL/Desktop/celen mlp/intermediate_outputs\chemosensory\24081916_25/Modelfc1 Overlap0.1 Acc 99.8 at chemosensory6 ran at24081916_25.png" width="36px" height="36px" preserveAspectRatio="xMinYMin meet" x="108" y="-414"/>
</g>
<!-- inputs0&#45;&gt;chemosensory6 -->
<g id="edge7" class="edge">
<title>inputs0&#45;&gt;chemosensory6</title>
<path fill="none" stroke="#ffffff" d="M26.97,-201.78C46.66,-240.8 97.45,-341.42 117.08,-380.32"/>
</g>
<!-- chemosensory7 -->
<g id="node10" class="node">
<title>chemosensory7</title>
<ellipse fill="gray" stroke="transparent" cx="126" cy="-354" rx="18" ry="18"/>
<image xlink:href="C:/Users/DELL/Desktop/celen mlp/intermediate_outputs\chemosensory\24081916_25/Modelfc1 Overlap0.1 Acc 99.8 at chemosensory7 ran at24081916_25.png" width="36px" height="36px" preserveAspectRatio="xMinYMin meet" x="108" y="-372"/>
</g>
<!-- inputs0&#45;&gt;chemosensory7 -->
<g id="edge8" class="edge">
<title>inputs0&#45;&gt;chemosensory7</title>
<path fill="none" stroke="#ffffff" d="M28.41,-200.91C48.47,-232.71 95.28,-306.9 115.46,-338.88"/>
</g>
<!-- chemosensory8 -->
<g id="node11" class="node">
<title>chemosensory8</title>
<ellipse fill="gray" stroke="transparent" cx="126" cy="-312" rx="18" ry="18"/>
<image xlink:href="C:/Users/DELL/Desktop/celen mlp/intermediate_outputs\chemosensory\24081916_25/Modelfc1 Overlap0.1 Acc 99.8 at chemosensory8 ran at24081916_25.png" width="36px" height="36px" preserveAspectRatio="xMinYMin meet" x="108" y="-330"/>
</g>
<!-- inputs0&#45;&gt;chemosensory8 -->
<g id="edge9" class="edge">
<title>inputs0&#45;&gt;chemosensory8</title>
<path fill="none" stroke="#ffffff" d="M30.34,-199.48C50.75,-223.74 93.4,-274.43 113.74,-298.61"/>
</g>
<!-- chemosensory9 -->
<g id="node12" class="node">
<title>chemosensory9</title>
<ellipse fill="gray" stroke="transparent" cx="126" cy="-270" rx="18" ry="18"/>
<image xlink:href="C:/Users/DELL/Desktop/celen mlp/intermediate_outputs\chemosensory\24081916_25/Modelfc1 Overlap0.1 Acc 99.8 at chemosensory9 ran at24081916_25.png" width="36px" height="36px" preserveAspectRatio="xMinYMin meet" x="108" y="-288"/>
</g>
<!-- inputs0&#45;&gt;chemosensory9 -->
<g id="edge10" class="edge">
<title>inputs0&#45;&gt;chemosensory9</title>
<path fill="none" stroke="#ffffff" d="M32.86,-196.98C53.28,-213.17 91.24,-243.25 111.47,-259.28"/>
</g>
<!-- chemosensory10 -->
<g id="node13" class="node">
<title>chemosensory10</title>
<ellipse fill="gray" stroke="transparent" cx="126" cy="-228" rx="18" ry="18"/>
<image xlink:href="C:/Users/DELL/Desktop/celen mlp/intermediate_outputs\chemosensory\24081916_25/Modelfc1 Overlap0.1 Acc 99.8 at chemosensory10 ran at24081916_25.png" width="36px" height="36px" preserveAspectRatio="xMinYMin meet" x="108" y="-246"/>
</g>
<!-- inputs0&#45;&gt;chemosensory10 -->
<g id="edge11" class="edge">
<title>inputs0&#45;&gt;chemosensory10</title>
<path fill="none" stroke="#ffffff" d="M35.1,-192.38C55.14,-200.32 89.15,-213.79 109.1,-221.7"/>
</g>
<!-- outputs0 -->
<g id="node18" class="node">
<title>outputs0</title>
<ellipse fill="gray" stroke="transparent" cx="234" cy="-312" rx="18" ry="18"/>
<image xlink:href="C:/Users/DELL/Desktop/celen mlp/intermediate_outputs\output\24081916_25/Modelfc1 Overlap0.1 Acc 99.8 at output0 ran at24081916_25.png" width="36px" height="36px" preserveAspectRatio="xMinYMin meet" x="216" y="-330"/>
</g>
<!-- chemosensory0&#45;&gt;outputs0 -->
<g id="edge56" class="edge">
<title>chemosensory0&#45;&gt;outputs0</title>
<path fill="none" stroke="#ffffff" d="M138.34,-199.48C158.75,-223.74 201.4,-274.43 221.74,-298.61"/>
</g>
<!-- outputs1 -->
<g id="node19" class="node">
<title>outputs1</title>
<ellipse fill="gray" stroke="transparent" cx="234" cy="-270" rx="18" ry="18"/>
<image xlink:href="C:/Users/DELL/Desktop/celen mlp/intermediate_outputs\output\24081916_25/Modelfc1 Overlap0.1 Acc 99.8 at output1 ran at24081916_25.png" width="36px" height="36px" preserveAspectRatio="xMinYMin meet" x="216" y="-288"/>
</g>
<!-- chemosensory0&#45;&gt;outputs1 -->
<g id="edge57" class="edge">
<title>chemosensory0&#45;&gt;outputs1</title>
<path fill="none" stroke="#ffffff" d="M140.86,-196.98C161.28,-213.17 199.24,-243.25 219.47,-259.28"/>
</g>
<!-- outputs2 -->
<g id="node20" class="node">
<title>outputs2</title>
<ellipse fill="gray" stroke="transparent" cx="234" cy="-81" rx="18" ry="18"/>
<image xlink:href="C:/Users/DELL/Desktop/celen mlp/intermediate_outputs\output\24081916_25/Modelfc1 Overlap0.1 Acc 99.8 at output2 ran at24081916_25.png" width="36px" height="36px" preserveAspectRatio="xMinYMin meet" x="216" y="-99"/>
</g>
<!-- chemosensory0&#45;&gt;outputs2 -->
<g id="edge58" class="edge">
<title>chemosensory0&#45;&gt;outputs2</title>
<path fill="none" stroke="#ffffff" d="M139.58,-173.54C159.98,-153.33 200.05,-113.64 220.44,-93.44"/>
</g>
<!-- chemosensory1&#45;&gt;outputs0 -->
<g id="edge59" class="edge">
<title>chemosensory1&#45;&gt;outputs0</title>
<path fill="none" stroke="#ffffff" d="M136.41,-158.91C156.47,-190.71 203.28,-264.9 223.46,-296.88"/>
</g>
<!-- chemosensory1&#45;&gt;outputs1 -->
<g id="edge60" class="edge">
<title>chemosensory1&#45;&gt;outputs1</title>
<path fill="none" stroke="#ffffff" d="M138.34,-157.48C158.75,-181.74 201.4,-232.43 221.74,-256.61"/>
</g>
<!-- chemosensory1&#45;&gt;outputs2 -->
<g id="edge61" class="edge">
<title>chemosensory1&#45;&gt;outputs2</title>
<path fill="none" stroke="#8787ff" d="M141.74,-135.24C161.88,-123.27 197.79,-101.92 218.04,-89.89"/>
</g>
<!-- chemosensory2&#45;&gt;outputs0 -->
<g id="edge62" class="edge">
<title>chemosensory2&#45;&gt;outputs0</title>
<path fill="none" stroke="#8787ff" d="M134.97,-117.78C154.66,-156.8 205.45,-257.42 225.08,-296.32"/>
</g>
<!-- chemosensory2&#45;&gt;outputs1 -->
<g id="edge63" class="edge">
<title>chemosensory2&#45;&gt;outputs1</title>
<path fill="none" stroke="#ffffff" d="M136.41,-116.91C156.47,-148.71 203.28,-222.9 223.46,-254.88"/>
</g>
<!-- chemosensory2&#45;&gt;outputs2 -->
<g id="edge64" class="edge">
<title>chemosensory2&#45;&gt;outputs2</title>
<path fill="none" stroke="#ffffff" d="M144.03,-98.63C163.81,-94.71 196.25,-88.28 216.01,-84.37"/>
</g>
<!-- chemosensory3&#45;&gt;outputs0 -->
<g id="edge65" class="edge">
<title>chemosensory3&#45;&gt;outputs0</title>
<path fill="none" stroke="#ffffff" d="M133.95,-76.53C153.21,-122.3 207.04,-250.28 226.16,-295.73"/>
</g>
<!-- chemosensory3&#45;&gt;outputs1 -->
<g id="edge66" class="edge">
<title>chemosensory3&#45;&gt;outputs1</title>
<path fill="none" stroke="#ffffff" d="M134.97,-75.78C154.66,-114.8 205.45,-215.42 225.08,-254.32"/>
</g>
<!-- chemosensory3&#45;&gt;outputs2 -->
<g id="edge67" class="edge">
<title>chemosensory3&#45;&gt;outputs2</title>
<path fill="none" stroke="#afafff" d="M144.03,-63.37C163.81,-67.29 196.25,-73.72 216.01,-77.63"/>
</g>
<!-- chemosensory4&#45;&gt;outputs0 -->
<g id="edge68" class="edge">
<title>chemosensory4&#45;&gt;outputs0</title>
<path fill="none" stroke="#ffffff" d="M133,-34.65C151.62,-86.27 208.23,-243.3 226.93,-295.17"/>
</g>
<!-- chemosensory4&#45;&gt;outputs1 -->
<g id="edge69" class="edge">
<title>chemosensory4&#45;&gt;outputs1</title>
<path fill="none" stroke="#ffffff" d="M133.95,-34.53C153.21,-80.3 207.04,-208.28 226.16,-253.73"/>
</g>
<!-- chemosensory4&#45;&gt;outputs2 -->
<g id="edge70" class="edge">
<title>chemosensory4&#45;&gt;outputs2</title>
<path fill="none" stroke="#5050ff" d="M141.74,-26.76C161.88,-38.73 197.79,-60.08 218.04,-72.11"/>
</g>
<!-- chemosensory5&#45;&gt;outputs0 -->
<g id="edge71" class="edge">
<title>chemosensory5&#45;&gt;outputs0</title>
<path fill="none" stroke="#ffffff" d="M138.34,-424.52C158.75,-400.26 201.4,-349.57 221.74,-325.39"/>
</g>
<!-- chemosensory5&#45;&gt;outputs1 -->
<g id="edge72" class="edge">
<title>chemosensory5&#45;&gt;outputs1</title>
<path fill="none" stroke="#ffffff" d="M136.41,-423.09C156.47,-391.29 203.28,-317.1 223.46,-285.12"/>
</g>
<!-- chemosensory5&#45;&gt;outputs2 -->
<g id="edge73" class="edge">
<title>chemosensory5&#45;&gt;outputs2</title>
<path fill="none" stroke="#ffffff" d="M132.11,-420.78C150.06,-360.33 210.07,-158.22 227.94,-98.05"/>
</g>
<!-- chemosensory6&#45;&gt;outputs0 -->
<g id="edge74" class="edge">
<title>chemosensory6&#45;&gt;outputs0</title>
<path fill="none" stroke="#ffffff" d="M140.86,-385.02C161.28,-368.83 199.24,-338.75 219.47,-322.72"/>
</g>
<!-- chemosensory6&#45;&gt;outputs1 -->
<g id="edge75" class="edge">
<title>chemosensory6&#45;&gt;outputs1</title>
<path fill="none" stroke="#0000ff" d="M138.34,-382.52C158.75,-358.26 201.4,-307.57 221.74,-283.39"/>
</g>
<!-- chemosensory6&#45;&gt;outputs2 -->
<g id="edge76" class="edge">
<title>chemosensory6&#45;&gt;outputs2</title>
<path fill="none" stroke="#ffffff" d="M132.7,-379.06C151.1,-324.37 208.83,-152.83 227.27,-98.02"/>
</g>
<!-- chemosensory7&#45;&gt;outputs0 -->
<g id="edge77" class="edge">
<title>chemosensory7&#45;&gt;outputs0</title>
<path fill="none" stroke="#ffffff" d="M143.1,-347.62C163.14,-339.68 197.15,-326.21 217.1,-318.3"/>
</g>
<!-- chemosensory7&#45;&gt;outputs1 -->
<g id="edge78" class="edge">
<title>chemosensory7&#45;&gt;outputs1</title>
<path fill="none" stroke="#c3c3ff" d="M140.86,-343.02C161.28,-326.83 199.24,-296.75 219.47,-280.72"/>
</g>
<!-- chemosensory7&#45;&gt;outputs2 -->
<g id="edge79" class="edge">
<title>chemosensory7&#45;&gt;outputs2</title>
<path fill="none" stroke="#fffdfa" d="M133.47,-337.33C152.44,-288.48 207.75,-146.02 226.61,-97.45"/>
</g>
<!-- chemosensory8&#45;&gt;outputs0 -->
<g id="edge80" class="edge">
<title>chemosensory8&#45;&gt;outputs0</title>
<path fill="none" stroke="#ffcd72" d="M144.03,-312C163.69,-312 195.87,-312 215.66,-312"/>
</g>
<!-- chemosensory8&#45;&gt;outputs1 -->
<g id="edge81" class="edge">
<title>chemosensory8&#45;&gt;outputs1</title>
<path fill="none" stroke="#4646ff" d="M143.1,-305.62C163.14,-297.68 197.15,-284.21 217.1,-276.3"/>
</g>
<!-- chemosensory8&#45;&gt;outputs2 -->
<g id="edge82" class="edge">
<title>chemosensory8&#45;&gt;outputs2</title>
<path fill="none" stroke="#ffffff" d="M134.45,-295.76C153.92,-253.34 206.1,-139.62 225.55,-97.23"/>
</g>
<!-- chemosensory9&#45;&gt;outputs0 -->
<g id="edge83" class="edge">
<title>chemosensory9&#45;&gt;outputs0</title>
<path fill="none" stroke="#ffffff" d="M143.1,-276.38C163.14,-284.32 197.15,-297.79 217.1,-305.7"/>
</g>
<!-- chemosensory9&#45;&gt;outputs1 -->
<g id="edge84" class="edge">
<title>chemosensory9&#45;&gt;outputs1</title>
<path fill="none" stroke="#ffffff" d="M144.03,-270C163.69,-270 195.87,-270 215.66,-270"/>
</g>
<!-- chemosensory9&#45;&gt;outputs2 -->
<g id="edge85" class="edge">
<title>chemosensory9&#45;&gt;outputs2</title>
<path fill="none" stroke="#ffffff" d="M135.67,-254.53C155.6,-219 204.46,-131.89 224.35,-96.42"/>
</g>
<!-- chemosensory10&#45;&gt;outputs0 -->
<g id="edge86" class="edge">
<title>chemosensory10&#45;&gt;outputs0</title>
<path fill="none" stroke="#a0a0ff" d="M140.86,-238.98C161.28,-255.17 199.24,-285.25 219.47,-301.28"/>
</g>
<!-- chemosensory10&#45;&gt;outputs1 -->
<g id="edge87" class="edge">
<title>chemosensory10&#45;&gt;outputs1</title>
<path fill="none" stroke="#ffffff" d="M143.1,-234.38C163.14,-242.32 197.15,-255.79 217.1,-263.7"/>
</g>
<!-- chemosensory10&#45;&gt;outputs2 -->
<g id="edge88" class="edge">
<title>chemosensory10&#45;&gt;outputs2</title>
<path fill="none" stroke="#ffffff" d="M137.36,-213.64C157.67,-185.46 202.53,-123.25 222.76,-95.2"/>
</g>
<!-- inputs1 -->
<g id="node14" class="node">
<title>inputs1</title>
<ellipse fill="gray" stroke="transparent" cx="18" cy="-144" rx="18" ry="18"/>
</g>
<!-- inputs1&#45;&gt;chemosensory0 -->
<g id="edge12" class="edge">
<title>inputs1&#45;&gt;chemosensory0</title>
<path fill="none" stroke="#ffffff" d="M35.1,-150.38C55.14,-158.32 89.15,-171.79 109.1,-179.7"/>
</g>
<!-- inputs1&#45;&gt;chemosensory1 -->
<g id="edge13" class="edge">
<title>inputs1&#45;&gt;chemosensory1</title>
<path fill="none" stroke="#ffefd2" d="M36.03,-144C55.69,-144 87.87,-144 107.66,-144"/>
</g>
<!-- inputs1&#45;&gt;chemosensory2 -->
<g id="edge14" class="edge">
<title>inputs1&#45;&gt;chemosensory2</title>
<path fill="none" stroke="#ffffff" d="M35.1,-137.62C55.14,-129.68 89.15,-116.21 109.1,-108.3"/>
</g>
<!-- inputs1&#45;&gt;chemosensory3 -->
<g id="edge15" class="edge">
<title>inputs1&#45;&gt;chemosensory3</title>
<path fill="none" stroke="#ffffff" d="M32.86,-133.02C53.28,-116.83 91.24,-86.75 111.47,-70.72"/>
</g>
<!-- inputs1&#45;&gt;chemosensory4 -->
<g id="edge16" class="edge">
<title>inputs1&#45;&gt;chemosensory4</title>
<path fill="none" stroke="#ffffff" d="M30.34,-130.52C50.75,-106.26 93.4,-55.57 113.74,-31.39"/>
</g>
<!-- inputs1&#45;&gt;chemosensory5 -->
<g id="edge17" class="edge">
<title>inputs1&#45;&gt;chemosensory5</title>
<path fill="none" stroke="#ffffff" d="M25,-160.65C43.62,-212.27 100.23,-369.3 118.93,-421.17"/>
</g>
<!-- inputs1&#45;&gt;chemosensory6 -->
<g id="edge18" class="edge">
<title>inputs1&#45;&gt;chemosensory6</title>
<path fill="none" stroke="#ffffff" d="M25.95,-160.53C45.21,-206.3 99.04,-334.28 118.16,-379.73"/>
</g>
<!-- inputs1&#45;&gt;chemosensory7 -->
<g id="edge19" class="edge">
<title>inputs1&#45;&gt;chemosensory7</title>
<path fill="none" stroke="#ffffff" d="M26.97,-159.78C46.66,-198.8 97.45,-299.42 117.08,-338.32"/>
</g>
<!-- inputs1&#45;&gt;chemosensory8 -->
<g id="edge20" class="edge">
<title>inputs1&#45;&gt;chemosensory8</title>
<path fill="none" stroke="#ffffff" d="M28.41,-158.91C48.47,-190.71 95.28,-264.9 115.46,-296.88"/>
</g>
<!-- inputs1&#45;&gt;chemosensory9 -->
<g id="edge21" class="edge">
<title>inputs1&#45;&gt;chemosensory9</title>
<path fill="none" stroke="#f0f0ff" d="M30.34,-157.48C50.75,-181.74 93.4,-232.43 113.74,-256.61"/>
</g>
<!-- inputs1&#45;&gt;chemosensory10 -->
<g id="edge22" class="edge">
<title>inputs1&#45;&gt;chemosensory10</title>
<path fill="none" stroke="#ffffff" d="M32.86,-154.98C53.28,-171.17 91.24,-201.25 111.47,-217.28"/>
</g>
<!-- inputs2 -->
<g id="node15" class="node">
<title>inputs2</title>
<ellipse fill="gray" stroke="transparent" cx="18" cy="-102" rx="18" ry="18"/>
</g>
<!-- inputs2&#45;&gt;chemosensory0 -->
<g id="edge23" class="edge">
<title>inputs2&#45;&gt;chemosensory0</title>
<path fill="none" stroke="#ffffff" d="M32.86,-112.98C53.28,-129.17 91.24,-159.25 111.47,-175.28"/>
</g>
<!-- inputs2&#45;&gt;chemosensory1 -->
<g id="edge24" class="edge">
<title>inputs2&#45;&gt;chemosensory1</title>
<path fill="none" stroke="#fff2dc" d="M35.1,-108.38C55.14,-116.32 89.15,-129.79 109.1,-137.7"/>
</g>
<!-- inputs2&#45;&gt;chemosensory2 -->
<g id="edge25" class="edge">
<title>inputs2&#45;&gt;chemosensory2</title>
<path fill="none" stroke="#ffffff" d="M36.03,-102C55.69,-102 87.87,-102 107.66,-102"/>
</g>
<!-- inputs2&#45;&gt;chemosensory3 -->
<g id="edge26" class="edge">
<title>inputs2&#45;&gt;chemosensory3</title>
<path fill="none" stroke="#ffffff" d="M35.1,-95.62C55.14,-87.68 89.15,-74.21 109.1,-66.3"/>
</g>
<!-- inputs2&#45;&gt;chemosensory4 -->
<g id="edge27" class="edge">
<title>inputs2&#45;&gt;chemosensory4</title>
<path fill="none" stroke="#ffffff" d="M32.86,-91.02C53.28,-74.83 91.24,-44.75 111.47,-28.72"/>
</g>
<!-- inputs2&#45;&gt;chemosensory5 -->
<g id="edge28" class="edge">
<title>inputs2&#45;&gt;chemosensory5</title>
<path fill="none" stroke="#ffffff" d="M24.4,-119.12C42.59,-176.76 101.44,-363.32 119.61,-420.91"/>
</g>
<!-- inputs2&#45;&gt;chemosensory6 -->
<g id="edge29" class="edge">
<title>inputs2&#45;&gt;chemosensory6</title>
<path fill="none" stroke="#ffffff" d="M25,-118.65C43.62,-170.27 100.23,-327.3 118.93,-379.17"/>
</g>
<!-- inputs2&#45;&gt;chemosensory7 -->
<g id="edge30" class="edge">
<title>inputs2&#45;&gt;chemosensory7</title>
<path fill="none" stroke="#ffffff" d="M25.95,-118.53C45.21,-164.3 99.04,-292.28 118.16,-337.73"/>
</g>
<!-- inputs2&#45;&gt;chemosensory8 -->
<g id="edge31" class="edge">
<title>inputs2&#45;&gt;chemosensory8</title>
<path fill="none" stroke="#ffffff" d="M26.97,-117.78C46.66,-156.8 97.45,-257.42 117.08,-296.32"/>
</g>
<!-- inputs2&#45;&gt;chemosensory9 -->
<g id="edge32" class="edge">
<title>inputs2&#45;&gt;chemosensory9</title>
<path fill="none" stroke="#ffffff" d="M28.41,-116.91C48.47,-148.71 95.28,-222.9 115.46,-254.88"/>
</g>
<!-- inputs2&#45;&gt;chemosensory10 -->
<g id="edge33" class="edge">
<title>inputs2&#45;&gt;chemosensory10</title>
<path fill="none" stroke="#ffffff" d="M30.34,-115.48C50.75,-139.74 93.4,-190.43 113.74,-214.61"/>
</g>
<!-- inputs3 -->
<g id="node16" class="node">
<title>inputs3</title>
<ellipse fill="gray" stroke="transparent" cx="18" cy="-60" rx="18" ry="18"/>
</g>
<!-- inputs3&#45;&gt;chemosensory0 -->
<g id="edge34" class="edge">
<title>inputs3&#45;&gt;chemosensory0</title>
<path fill="none" stroke="#ffffff" d="M30.34,-73.48C50.75,-97.74 93.4,-148.43 113.74,-172.61"/>
</g>
<!-- inputs3&#45;&gt;chemosensory1 -->
<g id="edge35" class="edge">
<title>inputs3&#45;&gt;chemosensory1</title>
<path fill="none" stroke="#ffffff" d="M32.86,-70.98C53.28,-87.17 91.24,-117.25 111.47,-133.28"/>
</g>
<!-- inputs3&#45;&gt;chemosensory2 -->
<g id="edge36" class="edge">
<title>inputs3&#45;&gt;chemosensory2</title>
<path fill="none" stroke="#ffffff" d="M35.1,-66.38C55.14,-74.32 89.15,-87.79 109.1,-95.7"/>
</g>
<!-- inputs3&#45;&gt;chemosensory3 -->
<g id="edge37" class="edge">
<title>inputs3&#45;&gt;chemosensory3</title>
<path fill="none" stroke="#d2d2ff" d="M36.03,-60C55.69,-60 87.87,-60 107.66,-60"/>
</g>
<!-- inputs3&#45;&gt;chemosensory4 -->
<g id="edge38" class="edge">
<title>inputs3&#45;&gt;chemosensory4</title>
<path fill="none" stroke="#3737ff" d="M35.1,-53.62C55.14,-45.68 89.15,-32.21 109.1,-24.3"/>
</g>
<!-- inputs3&#45;&gt;chemosensory5 -->
<g id="edge39" class="edge">
<title>inputs3&#45;&gt;chemosensory5</title>
<path fill="none" stroke="#ffffff" d="M23.83,-77.22C41.49,-140.2 102.44,-357.54 120.14,-420.67"/>
</g>
<!-- inputs3&#45;&gt;chemosensory6 -->
<g id="edge40" class="edge">
<title>inputs3&#45;&gt;chemosensory6</title>
<path fill="none" stroke="#ffffff" d="M24.4,-77.12C42.59,-134.76 101.44,-321.32 119.61,-378.91"/>
</g>
<!-- inputs3&#45;&gt;chemosensory7 -->
<g id="edge41" class="edge">
<title>inputs3&#45;&gt;chemosensory7</title>
<path fill="none" stroke="#ffffff" d="M25,-76.65C43.62,-128.27 100.23,-285.3 118.93,-337.17"/>
</g>
<!-- inputs3&#45;&gt;chemosensory8 -->
<g id="edge42" class="edge">
<title>inputs3&#45;&gt;chemosensory8</title>
<path fill="none" stroke="#ffffff" d="M25.95,-76.53C45.21,-122.3 99.04,-250.28 118.16,-295.73"/>
</g>
<!-- inputs3&#45;&gt;chemosensory9 -->
<g id="edge43" class="edge">
<title>inputs3&#45;&gt;chemosensory9</title>
<path fill="none" stroke="#bebeff" d="M26.97,-75.78C46.66,-114.8 97.45,-215.42 117.08,-254.32"/>
</g>
<!-- inputs3&#45;&gt;chemosensory10 -->
<g id="edge44" class="edge">
<title>inputs3&#45;&gt;chemosensory10</title>
<path fill="none" stroke="#ffa500" d="M28.41,-74.91C48.47,-106.71 95.28,-180.9 115.46,-212.88"/>
</g>
<!-- inputs4 -->
<g id="node17" class="node">
<title>inputs4</title>
<ellipse fill="gray" stroke="transparent" cx="18" cy="-249" rx="18" ry="18"/>
</g>
<!-- inputs4&#45;&gt;chemosensory0 -->
<g id="edge45" class="edge">
<title>inputs4&#45;&gt;chemosensory0</title>
<path fill="none" stroke="#ffffff" d="M33.74,-240.24C53.88,-228.27 89.79,-206.92 110.04,-194.89"/>
</g>
<!-- inputs4&#45;&gt;chemosensory1 -->
<g id="edge46" class="edge">
<title>inputs4&#45;&gt;chemosensory1</title>
<path fill="none" stroke="#ffffff" d="M31.58,-236.54C51.98,-216.33 92.05,-176.64 112.44,-156.44"/>
</g>
<!-- inputs4&#45;&gt;chemosensory2 -->
<g id="edge47" class="edge">
<title>inputs4&#45;&gt;chemosensory2</title>
<path fill="none" stroke="#ffffff" d="M29.36,-234.64C49.67,-206.46 94.53,-144.25 114.76,-116.2"/>
</g>
<!-- inputs4&#45;&gt;chemosensory3 -->
<g id="edge48" class="edge">
<title>inputs4&#45;&gt;chemosensory3</title>
<path fill="none" stroke="#ffffff" d="M27.67,-233.53C47.6,-198 96.46,-110.89 116.35,-75.42"/>
</g>
<!-- inputs4&#45;&gt;chemosensory4 -->
<g id="edge49" class="edge">
<title>inputs4&#45;&gt;chemosensory4</title>
<path fill="none" stroke="#ffffff" d="M26.45,-232.76C45.92,-190.34 98.1,-76.62 117.55,-34.23"/>
</g>
<!-- inputs4&#45;&gt;chemosensory5 -->
<g id="edge50" class="edge">
<title>inputs4&#45;&gt;chemosensory5</title>
<path fill="none" stroke="#ffffff" d="M27.67,-264.47C47.6,-300 96.46,-387.11 116.35,-422.58"/>
</g>
<!-- inputs4&#45;&gt;chemosensory6 -->
<g id="edge51" class="edge">
<title>inputs4&#45;&gt;chemosensory6</title>
<path fill="none" stroke="#ffffff" d="M29.36,-263.36C49.67,-291.54 94.53,-353.75 114.76,-381.8"/>
</g>
<!-- inputs4&#45;&gt;chemosensory7 -->
<g id="edge52" class="edge">
<title>inputs4&#45;&gt;chemosensory7</title>
<path fill="none" stroke="#ffffff" d="M31.58,-261.46C51.98,-281.67 92.05,-321.36 112.44,-341.56"/>
</g>
<!-- inputs4&#45;&gt;chemosensory8 -->
<g id="edge53" class="edge">
<title>inputs4&#45;&gt;chemosensory8</title>
<path fill="none" stroke="#ffffff" d="M33.74,-257.76C53.88,-269.73 89.79,-291.08 110.04,-303.11"/>
</g>
<!-- inputs4&#45;&gt;chemosensory9 -->
<g id="edge54" class="edge">
<title>inputs4&#45;&gt;chemosensory9</title>
<path fill="none" stroke="#ffffff" d="M36.03,-252.37C55.81,-256.29 88.25,-262.72 108.01,-266.63"/>
</g>
<!-- inputs4&#45;&gt;chemosensory10 -->
<g id="edge55" class="edge">
<title>inputs4&#45;&gt;chemosensory10</title>
<path fill="none" stroke="#ffffff" d="M36.03,-245.63C55.81,-241.71 88.25,-235.28 108.01,-231.37"/>
</g>
</g>
</svg>
